<svg width="163" height="60" viewBox="0 0 163 60" fill="none" xmlns="http://www.w3.org/2000/svg">
<rect x="1.5" y="1.5" width="77" height="57" stroke="#D53D27" stroke-width="3"/>
<path d="M17.6216 31.6875C17.6216 31.2891 17.5591 30.9375 17.4341 30.6328C17.3169 30.3203 17.106 30.0391 16.8013 29.7891C16.5044 29.5391 16.0904 29.3008 15.5591 29.0742C15.0357 28.8477 14.3716 28.6172 13.5669 28.3828C12.7232 28.1328 11.9615 27.8555 11.2818 27.5508C10.6021 27.2383 10.0201 26.8828 9.53568 26.4844C9.0513 26.0859 8.68021 25.6289 8.42239 25.1133C8.16458 24.5977 8.03568 24.0078 8.03568 23.3438C8.03568 22.6797 8.17239 22.0664 8.44583 21.5039C8.71927 20.9414 9.10989 20.4531 9.61771 20.0391C10.1333 19.6172 10.7466 19.2891 11.4576 19.0547C12.1685 18.8203 12.9615 18.7031 13.8365 18.7031C15.1177 18.7031 16.2036 18.9492 17.0943 19.4414C17.9927 19.9258 18.6763 20.5625 19.1451 21.3516C19.6138 22.1328 19.8482 22.9688 19.8482 23.8594H17.5982C17.5982 23.2188 17.4615 22.6523 17.188 22.1602C16.9146 21.6602 16.5005 21.2695 15.9458 20.9883C15.3911 20.6992 14.688 20.5547 13.8365 20.5547C13.0318 20.5547 12.3677 20.6758 11.8443 20.918C11.3208 21.1602 10.9302 21.4883 10.6724 21.9023C10.4224 22.3164 10.2974 22.7891 10.2974 23.3203C10.2974 23.6797 10.3716 24.0078 10.5201 24.3047C10.6763 24.5938 10.9146 24.8633 11.2349 25.1133C11.563 25.3633 11.9771 25.5938 12.4771 25.8047C12.9849 26.0156 13.5904 26.2188 14.2935 26.4141C15.2622 26.6875 16.0982 26.9922 16.8013 27.3281C17.5044 27.6641 18.0826 28.043 18.5357 28.4648C18.9966 28.8789 19.3365 29.3516 19.5552 29.8828C19.7818 30.4062 19.8951 31 19.8951 31.6641C19.8951 32.3594 19.7544 32.9883 19.4732 33.5508C19.1919 34.1133 18.7896 34.5938 18.2661 34.9922C17.7427 35.3906 17.1138 35.6992 16.3794 35.918C15.6529 36.1289 14.8404 36.2344 13.9419 36.2344C13.1529 36.2344 12.3755 36.125 11.6099 35.9062C10.8521 35.6875 10.1607 35.3594 9.53568 34.9219C8.91849 34.4844 8.42239 33.9453 8.04739 33.3047C7.68021 32.6562 7.49661 31.9062 7.49661 31.0547H9.74661C9.74661 31.6406 9.85989 32.1445 10.0865 32.5664C10.313 32.9805 10.6216 33.3242 11.0122 33.5977C11.4107 33.8711 11.8599 34.0742 12.3599 34.207C12.8677 34.332 13.3951 34.3945 13.9419 34.3945C14.731 34.3945 15.399 34.2852 15.9458 34.0664C16.4927 33.8477 16.9068 33.5352 17.188 33.1289C17.4771 32.7227 17.6216 32.2422 17.6216 31.6875ZM30.7236 18.9375V36H28.4619V18.9375H30.7236ZM46.3101 18.9375V36H44.0835V18.9375H46.3101ZM51.7944 18.9375V20.7891H38.6108V18.9375H51.7944ZM70.6855 34.1602V36H61.6504V34.1602H70.6855ZM62.1074 18.9375V36H59.8457V18.9375H62.1074ZM69.4902 26.2734V28.1133H61.6504V26.2734H69.4902ZM70.5683 18.9375V20.7891H61.6504V18.9375H70.5683Z" fill="white"/>
<path d="M96.7329 34.1602V36H88.2017V34.1602H96.7329ZM88.647 18.9375V36H86.3853V18.9375H88.647ZM117.206 26.9297V28.0078C117.206 29.2891 117.046 30.4375 116.726 31.4531C116.405 32.4688 115.944 33.332 115.343 34.043C114.741 34.7539 114.019 35.2969 113.175 35.6719C112.339 36.0469 111.401 36.2344 110.362 36.2344C109.355 36.2344 108.429 36.0469 107.585 35.6719C106.749 35.2969 106.022 34.7539 105.405 34.043C104.796 33.332 104.323 32.4688 103.987 31.4531C103.651 30.4375 103.483 29.2891 103.483 28.0078V26.9297C103.483 25.6484 103.647 24.5039 103.976 23.4961C104.312 22.4805 104.784 21.6172 105.394 20.9062C106.003 20.1875 106.726 19.6406 107.562 19.2656C108.405 18.8906 109.331 18.7031 110.339 18.7031C111.378 18.7031 112.315 18.8906 113.151 19.2656C113.995 19.6406 114.718 20.1875 115.319 20.9062C115.929 21.6172 116.394 22.4805 116.714 23.4961C117.042 24.5039 117.206 25.6484 117.206 26.9297ZM114.968 28.0078V26.9062C114.968 25.8906 114.862 24.9922 114.651 24.2109C114.448 23.4297 114.147 22.7734 113.749 22.2422C113.351 21.7109 112.862 21.3086 112.284 21.0352C111.714 20.7617 111.065 20.625 110.339 20.625C109.636 20.625 108.999 20.7617 108.429 21.0352C107.866 21.3086 107.382 21.7109 106.976 22.2422C106.577 22.7734 106.269 23.4297 106.05 24.2109C105.831 24.9922 105.722 25.8906 105.722 26.9062V28.0078C105.722 29.0312 105.831 29.9375 106.05 30.7266C106.269 31.5078 106.581 32.168 106.987 32.707C107.401 33.2383 107.89 33.6406 108.452 33.9141C109.022 34.1875 109.659 34.3242 110.362 34.3242C111.097 34.3242 111.749 34.1875 112.319 33.9141C112.89 33.6406 113.37 33.2383 113.761 32.707C114.159 32.168 114.46 31.5078 114.663 30.7266C114.866 29.9375 114.968 29.0312 114.968 28.0078ZM138.722 27.5039V33.75C138.511 34.0625 138.175 34.4141 137.714 34.8047C137.253 35.1875 136.617 35.5234 135.804 35.8125C135 36.0938 133.96 36.2344 132.687 36.2344C131.648 36.2344 130.691 36.0547 129.816 35.6953C128.949 35.3281 128.195 34.7969 127.554 34.1016C126.921 33.3984 126.429 32.5469 126.078 31.5469C125.734 30.5391 125.562 29.3984 125.562 28.125V26.8008C125.562 25.5273 125.71 24.3906 126.007 23.3906C126.312 22.3906 126.757 21.543 127.343 20.8477C127.929 20.1445 128.648 19.6133 129.5 19.2539C130.351 18.8867 131.328 18.7031 132.429 18.7031C133.734 18.7031 134.824 18.9297 135.699 19.3828C136.582 19.8281 137.269 20.4453 137.761 21.2344C138.261 22.0234 138.582 22.9219 138.722 23.9297H136.46C136.359 23.3125 136.156 22.75 135.851 22.2422C135.554 21.7344 135.128 21.3281 134.574 21.0234C134.019 20.7109 133.304 20.5547 132.429 20.5547C131.64 20.5547 130.957 20.6992 130.378 20.9883C129.8 21.2773 129.324 21.6914 128.949 22.2305C128.574 22.7695 128.292 23.4219 128.105 24.1875C127.925 24.9531 127.835 25.8164 127.835 26.7773V28.125C127.835 29.1094 127.949 29.9883 128.175 30.7617C128.41 31.5352 128.742 32.1953 129.171 32.7422C129.601 33.2812 130.113 33.6914 130.707 33.9727C131.308 34.2539 131.972 34.3945 132.699 34.3945C133.503 34.3945 134.156 34.3281 134.656 34.1953C135.156 34.0547 135.546 33.8906 135.828 33.7031C136.109 33.5078 136.324 33.3242 136.472 33.1523V29.332H132.523V27.5039H138.722ZM161.129 26.9297V28.0078C161.129 29.2891 160.969 30.4375 160.648 31.4531C160.328 32.4688 159.867 33.332 159.266 34.043C158.664 34.7539 157.941 35.2969 157.098 35.6719C156.262 36.0469 155.324 36.2344 154.285 36.2344C153.277 36.2344 152.352 36.0469 151.508 35.6719C150.672 35.2969 149.945 34.7539 149.328 34.043C148.719 33.332 148.246 32.4688 147.91 31.4531C147.574 30.4375 147.406 29.2891 147.406 28.0078V26.9297C147.406 25.6484 147.57 24.5039 147.898 23.4961C148.234 22.4805 148.707 21.6172 149.316 20.9062C149.926 20.1875 150.648 19.6406 151.484 19.2656C152.328 18.8906 153.254 18.7031 154.262 18.7031C155.301 18.7031 156.238 18.8906 157.074 19.2656C157.918 19.6406 158.641 20.1875 159.242 20.9062C159.852 21.6172 160.316 22.4805 160.637 23.4961C160.965 24.5039 161.129 25.6484 161.129 26.9297ZM158.891 28.0078V26.9062C158.891 25.8906 158.785 24.9922 158.574 24.2109C158.371 23.4297 158.07 22.7734 157.672 22.2422C157.273 21.7109 156.785 21.3086 156.207 21.0352C155.637 20.7617 154.988 20.625 154.262 20.625C153.559 20.625 152.922 20.7617 152.352 21.0352C151.789 21.3086 151.305 21.7109 150.898 22.2422C150.5 22.7734 150.191 23.4297 149.973 24.2109C149.754 24.9922 149.645 25.8906 149.645 26.9062V28.0078C149.645 29.0312 149.754 29.9375 149.973 30.7266C150.191 31.5078 150.504 32.168 150.91 32.707C151.324 33.2383 151.812 33.6406 152.375 33.9141C152.945 34.1875 153.582 34.3242 154.285 34.3242C155.02 34.3242 155.672 34.1875 156.242 33.9141C156.812 33.6406 157.293 33.2383 157.684 32.707C158.082 32.168 158.383 31.5078 158.586 30.7266C158.789 29.9375 158.891 29.0312 158.891 28.0078Z" fill="white"/>
</svg>
